# xmcd CD database file
#
# Track frame offsets:
#	150
#	12822
#	24294
#	34684
#	50691
#	62387
#	75147
#	91142
#	101463
#	113939
#	128920
#	141600
#	154063
#	164645
#	177313
#	189459
#	202149
#	211128
#
# Disc length: 2972 seconds
#
# Revision: 0
# Processed by: cddbd v1.5.1PL0 Copyright (c) Steve Scherf et al.
# Submitted via: CDex 1.51
#
DISCID=ec0b9a12
DTITLE=Ray Charles - Blues Before Sunrise
DYEAR=2005
DGENRE=Blues
TTITLE0=Blues Before Sunrise
TTITLE1=Ray Charles
TTITLE2=Hey Now
TTITLE3=I Found My Baby There (St Pete Florida Blues)
TTITLE4=How Long, How Long Blues
TTITLE5=Feelin' Sad
TTITLE6=Let Me Hear You Call My Name
TTITLE7=Ain't That Fine
TTITLE8=Jumpin' In The Morning
TTITLE9=I'm Wonderin' And Wonderin'
TTITLE10=Can Anyone Ask For More?
TTITLE11=Rockin' Chair Blues
TTITLE12=The Ego Song
TTITLE13=Why Did You Go?
TTITLE14=I've Had My Fun
TTITLE15=You'll Never Miss The Water Until The Well's Gone Dry
TTITLE16=All To Myself Alone
TTITLE17=If I Give You My Love
EXTD=YEAR: 2005
EXTT0=
EXTT1=
EXTT2=
EXTT3=
EXTT4=
EXTT5=
EXTT6=
EXTT7=
EXTT8=
EXTT9=
EXTT10=
EXTT11=
EXTT12=
EXTT13=
EXTT14=
EXTT15=
EXTT16=
EXTT17=
PLAYORDER=
